<?xml version="1.0" encoding="UTF-8" standalone="no"?>
<!-- Created with Inkscape (http://www.inkscape.org/) -->

<svg
   width="186.15102mm"
   height="186.108mm"
   viewBox="0 0 186.15102 186.108"
   version="1.1"
   id="svg35"
   xml:space="preserve"
   inkscape:export-filename="favicon.svg"
   inkscape:export-xdpi="96"
   inkscape:export-ydpi="96"
   xmlns:inkscape="http://www.inkscape.org/namespaces/inkscape"
   xmlns:sodipodi="http://sodipodi.sourceforge.net/DTD/sodipodi-0.dtd"
   xmlns="http://www.w3.org/2000/svg"
   xmlns:svg="http://www.w3.org/2000/svg"><sodipodi:namedview
     id="namedview37"
     pagecolor="#000000"
     bordercolor="#000000"
     borderopacity="0.25"
     inkscape:showpageshadow="2"
     inkscape:pageopacity="0"
     inkscape:pagecheckerboard="0"
     inkscape:deskcolor="#636363"
     inkscape:document-units="mm"
     showgrid="false" /><defs
     id="defs32" /><g
     inkscape:label="Dots"
     inkscape:groupmode="layer"
     id="layer1"
     transform="translate(-171.65252,41.937777)"
     style="fill:#ffffff"><path
       d="m 263.08046,126.85602 c -1.12077,-1.12077 -1.44552,-2.4092 -1.44552,-5.73503 0,-6.04096 0.87347,-7.99742 3.57049,-7.99742 2.85786,0 3.65711,1.64816 3.65711,7.54147 0,3.78178 -0.29355,5.039 -1.44552,6.19098 -0.79503,0.79503 -1.77076,1.44552 -2.16828,1.44552 -0.39752,0 -1.37324,-0.65049 -2.16828,-1.44552 z m -37.0685,-9.84455 c -1.01651,-1.0165 -0.47797,-3.25269 1.72223,-7.15125 2.55401,-4.52545 3.03241,-4.94705 4.93004,-4.34477 2.38625,0.75737 2.34396,2.57475 -0.16662,7.15998 -1.823,3.32945 -2.86072,4.47621 -4.19628,4.63719 -0.97589,0.11763 -2.00612,-0.0179 -2.28937,-0.30115 z m 74.13596,-1.25963 c -2.0679,-2.6289 -4.05406,-7.48194 -3.57404,-8.73286 0.64045,-1.66898 3.07644,-1.35946 4.60617,0.58528 0.73907,0.93956 1.94704,3.04616 2.6844,4.68134 1.09391,2.42585 1.17252,3.17563 0.42712,4.07378 -1.29308,1.55807 -2.58972,1.36796 -4.14365,-0.60754 z M 199.62212,89.85069 c -2.11237,-2.11237 -0.82522,-4.00596 5.00124,-7.35758 3.54861,-2.04132 5.35741,-1.92963 6.08919,0.37598 0.5875,1.85107 -0.47851,3.04134 -5.0835,5.67604 -4.24477,2.42861 -4.76978,2.54272 -6.00693,1.30556 z m 124.31086,-2.12243 c -3.27541,-1.90921 -3.80233,-2.51285 -3.6138,-4.13993 0.31701,-2.73593 2.62357,-2.77559 6.94054,-0.11933 3.76971,2.31952 4.72417,3.61113 4.02157,5.4421 -0.64145,1.6716 -3.14173,1.26913 -7.34831,-1.18284 z M 190.08168,53.857222 c -1.74005,-1.74005 -1.76832,-2.10854 -0.3204,-4.17574 0.99891,-1.42614 1.75661,-1.60634 6.75421,-1.60634 4.53546,0 5.86147,0.25679 6.82524,1.32174 3.08467,3.40852 0.1606,5.90586 -6.91503,5.90586 -3.93482,0 -5.18287,-0.28438 -6.34402,-1.44552 z m 137.49464,-0.11889 c -1.35008,-1.35008 -1.07041,-4.07185 0.50504,-4.915 1.99845,-1.06954 10.35657,-0.93542 11.89692,0.1909 0.85443,0.62477 1.20305,1.65291 1.04159,3.07173 l -0.24269,2.13264 -6.15395,0.20635 c -4.16768,0.13974 -6.44216,-0.0819 -7.04691,-0.68662 z M 203.16345,19.195803 c -3.91963,-2.51966 -4.66794,-3.73674 -3.38023,-5.49779 1.10844,-1.51588 2.26202,-1.18365 7.60811,2.19119 2.14172,1.35201 2.92764,2.33077 2.92764,3.64597 0,1.49069 -0.33958,1.78991 -1.98759,1.75145 -1.09318,-0.0255 -3.41875,-0.96638 -5.16793,-2.09082 z m 26.69519,-23.31697 c -0.58245,-0.90713 -1.83149,-3.07192 -2.77566,-4.81063 -1.51501,-2.78995 -1.59111,-3.28686 -0.6478,-4.23016 0.62458,-0.62458 1.65878,-0.88161 2.48815,-0.61838 1.79995,0.57128 5.4197,7.13975 5.11531,9.28231 -0.31788,2.23736 -2.83945,2.46469 -4.18,0.37686 z m 66.95063,1.12125 c -0.99994,-0.99994 -0.4095,-3.44383 1.73948,-7.19985 2.28304,-3.99034 4.02235,-4.85477 5.70025,-2.83302 1.07294,1.29282 0.62798,2.78203 -2.13117,7.13277 -1.9851,3.13017 -3.98561,4.22306 -5.30856,2.9001 z m -33.67195,-7.76138 c -0.52749,-0.6356 -0.76344,-3.1088 -0.63056,-6.609569 0.16658,-4.38873 0.48483,-5.76523 1.47715,-6.38897 0.91987,-0.5782 1.6098,-0.5782 2.52966,0 0.99232,0.62374 1.31058,2.00024 1.47716,6.38897 0.22159,5.838029 -0.42107,7.625189 -2.74199,7.625189 -0.69769,0 -1.64783,-0.45703 -2.11142,-1.01562 z"
       style="display:inline;fill:#5f8dd3;stroke-width:0.72276"
       id="path582" /></g><g
     inkscape:groupmode="layer"
     id="layer3"
     inkscape:label="Tick"
     style="display:inline;fill:#ffffff"><path
       d="m 82.653971,122.936 c -4.96898,-5.41988 -12.09039,-13.05775 -15.82536,-16.97307 l -6.79087,-7.118758 3.89983,-8.27514 c 2.1449,-4.55132 4.06244,-8.25224 4.2612,-8.22425 0.19875,0.028 5.7136,5.73552 12.25519,12.68342 l 11.89381,12.632558 c 0,0 3.42667,-3.51504 5.11729,-5.29433 3.049619,-3.209558 9.066229,-9.706528 9.066229,-9.706528 3.73471,-4.1728 15.44104,-16.83894 42.47114,-45.953339 8.62036,-9.28507 12.64034,-13.09144 14.69395,-13.91313 2.01689,-0.807 5.31854,-1.13115 11.52143,-1.13115 9.83893,0 9.64446,-0.24887 4.32881,5.53946 -6.93285,7.54934 -21.67463,23.817178 -23.39904,25.82126 -0.99512,1.156516 -10.5866,11.837741 -21.31251,23.749781 -7.26026,8.063147 -15.04029,16.690226 -21.02586,23.308996 -1.43796,1.59007 -6.64694,7.36312 -11.57552,12.82899 -4.928589,5.46587 -9.317499,9.92481 -9.753149,9.90875 -0.43563,-0.016 -4.85759,-4.46364 -9.82657,-9.88352 z"
       style="fill:#ff6600;stroke-width:0.72276"
       id="path495"
       sodipodi:nodetypes="sscssscscsssssssscs" /></g><g
     inkscape:groupmode="layer"
     id="layer4"
     inkscape:label="A"
     style="display:inline;fill:#ffffff"><path
       d="m 44.620223,131.36449 c 4.30715,-9.34523 12.28432,-26.1903 12.57848,-26.56144 0.15753,-0.19875 3.17375,2.64816 6.7027,6.32648 l 6.41629,6.68786 -2.59101,5.59906 c -1.42505,3.07949 -3.36371,7.30659 -4.30814,9.39356 l -1.71714,3.79449 h -9.74812 -9.74814 z m 80.897247,4.43242 c -0.97938,-1.18279 -8.90453,-18.36496 -8.90453,-19.30554 0,-0.35638 2.48492,-3.37597 5.52203,-6.71021 3.03711,-3.33424 5.74987,-6.31942 6.02833,-6.63374 0.27847,-0.31432 4.00933,6.77773 8.2908,15.76011 4.28148,8.98239 7.65018,16.46593 7.486,16.6301 -0.16417,0.16418 -4.19025,0.51452 -8.94683,0.77855 -6.92354,0.38431 -8.81336,0.28074 -9.4758,-0.51927 z M 79.271233,85.478811 c -2.31935,-2.67797 -5.11199,-5.84908 -6.20589,-7.04692 -1.09389,-1.19783 -1.83683,-2.58198 -1.65098,-3.07588 0.18585,-0.49391 3.4921,-7.864349 7.34723,-16.378769 l 7.0093,-15.48075 7.28998,-0.28507 c 4.5181,-0.17668 7.599517,0.005 8.104067,0.47803 0.44774,0.41972 2.10478,3.69029 3.68231,7.26796 1.57754,3.57766 4.58956,10.30716 6.69339,14.95443 l 3.82514,8.449589 -5.96995,6.93973 c -3.28349,3.81684 -6.3032,6.82864 -6.71048,6.69289 -0.40728,-0.13577 -2.56275,-4.36939 -4.789927,-9.40806 -2.22718,-5.03868 -4.23207,-9.169539 -4.45532,-9.179709 -0.22324,-0.0102 -2.45767,4.697519 -4.96541,10.461539 -2.50773,5.76401 -4.65558,10.48002 -4.77299,10.48002 -0.11742,0 -2.11113,-2.19106 -4.43047,-4.86903 z"
       style="fill:#aaffee;stroke-width:0.72276"
       id="path524" /></g><g
     inkscape:groupmode="layer"
     id="layer5"
     inkscape:label="Circle"
     style="display:inline;fill:#ffffff"
     transform="translate(-217.4004,13.586939)"><path
       d="m 301.83991,172.1729 c -13.65766,-1.9559 -23.60217,-5.04925 -34.59191,-10.76023 -24.58039,-12.77353 -41.6359,-35.03505 -47.88833,-62.505695 -1.86239,-8.18263 -2.54301,-23.285898 -1.40123,-31.094488 2.33915,-15.997539 8.4343,-31.174299 17.42151,-43.379039 24.57367,-33.3713891 69.3286,-46.722699 107.92324,-32.1957091 9.94108,3.7418099 19.8891,9.6254601 28.16294,16.6566601 l 4.93919,4.197379 -3.83036,3.87854 c -2.1067,2.1332 -4.00409,3.87426 -4.21643,3.86904 -0.21234,-0.005 -2.64653,-1.93131 -5.40932,-4.28019 -14.64912,-12.454429 -32.6566,-18.969059 -52.43618,-18.969999 -17.02036,-7.2e-4 -31.42112,4.33182 -45.47137,13.680529 -15.99587,10.64328 -28.54163,28.27064 -33.82388,47.524069 -1.83876,6.70214 -1.98048,8.19973 -1.94923,20.59867 0.0284,11.257128 0.27184,14.231598 1.53996,18.814038 2.40902,8.705205 5.68584,16.540945 9.51421,22.750995 20.25988,32.86372 59.57322,47.70812 95.39735,36.02127 12.62986,-4.12021 24.09619,-11.3248 33.36836,-20.96616 13.66927,-14.21353 21.1906,-30.44595 23.14247,-49.945693 1.09269,-10.91634 -0.22209,-21.85098 -3.97645,-33.070719 l -2.57265,-7.68824 3.79364,-4.23439 c 2.08649,-2.32891 4.005,-4.0106 4.26334,-3.73709 1.20197,1.27252 5.22294,12.02488 6.80793,18.2049 5.69719,22.213779 3.23954,45.599702 -6.91295,65.780662 -5.80977,11.54857 -17.12426,24.91789 -27.79506,32.84295 -12.52092,9.29911 -27.77891,15.52234 -43.37618,17.69173 -5.19935,0.72317 -16.56412,0.89743 -20.62261,0.31621 z"
       style="fill:#f2f2f2;stroke-width:0.72276"
       id="path553" /></g></svg>
